<svg width="19" height="19" viewBox="0 0 19 19" fill="none" xmlns="http://www.w3.org/2000/svg">
<path d="M8.39167 12.825L13.9729 7.24375L12.8646 6.13542L8.39167 10.6083L6.13542 8.35208L5.02708 9.46042L8.39167 12.825ZM3.95833 16.625C3.52292 16.625 3.15017 16.47 2.8401 16.1599C2.53003 15.8498 2.375 15.4771 2.375 15.0417V3.95833C2.375 3.52292 2.53003 3.15017 2.8401 2.8401C3.15017 2.53003 3.52292 2.375 3.95833 2.375H15.0417C15.4771 2.375 15.8498 2.53003 16.1599 2.8401C16.47 3.15017 16.625 3.52292 16.625 3.95833V15.0417C16.625 15.4771 16.47 15.8498 16.1599 16.1599C15.8498 16.47 15.4771 16.625 15.0417 16.625H3.95833ZM3.95833 15.0417H15.0417V3.95833H3.95833V15.0417Z" fill="#1D1B20"/>
</svg>
