<svg width="15" height="15" viewBox="0 0 15 15" fill="none" xmlns="http://www.w3.org/2000/svg">
<path d="M0 12.5V10.7656C0 10.4115 0.0885417 10.0833 0.265625 9.78125C0.442708 9.47917 0.6875 9.25 1 9.09375C1.14583 9.02083 1.28646 8.95312 1.42188 8.89062C1.56771 8.82813 1.71875 8.77083 1.875 8.71875V12.5H0ZM2.5 8.125C1.97917 8.125 1.53646 7.94271 1.17188 7.57813C0.807292 7.21354 0.625 6.77083 0.625 6.25C0.625 5.72917 0.807292 5.28646 1.17188 4.92187C1.53646 4.55729 1.97917 4.375 2.5 4.375C3.02083 4.375 3.46354 4.55729 3.82812 4.92187C4.19271 5.28646 4.375 5.72917 4.375 6.25C4.375 6.77083 4.19271 7.21354 3.82812 7.57813C3.46354 7.94271 3.02083 8.125 2.5 8.125ZM2.5 6.875C2.67708 6.875 2.82292 6.81771 2.9375 6.70312C3.0625 6.57813 3.125 6.42708 3.125 6.25C3.125 6.07292 3.0625 5.92708 2.9375 5.8125C2.82292 5.6875 2.67708 5.625 2.5 5.625C2.32292 5.625 2.17188 5.6875 2.04688 5.8125C1.93229 5.92708 1.875 6.07292 1.875 6.25C1.875 6.42708 1.93229 6.57813 2.04688 6.70312C2.17188 6.81771 2.32292 6.875 2.5 6.875ZM2.5 12.5V10.75C2.5 10.3958 2.58854 10.0729 2.76562 9.78125C2.95313 9.47917 3.19792 9.25 3.5 9.09375C4.14583 8.77083 4.80208 8.53125 5.46875 8.375C6.13542 8.20833 6.8125 8.125 7.5 8.125C8.1875 8.125 8.86458 8.20833 9.53125 8.375C10.1979 8.53125 10.8542 8.77083 11.5 9.09375C11.8021 9.25 12.0417 9.47917 12.2188 9.78125C12.4063 10.0729 12.5 10.3958 12.5 10.75V12.5H2.5ZM3.75 11.25H11.25V10.75C11.25 10.6354 11.2188 10.5313 11.1562 10.4375C11.1042 10.3438 11.0312 10.2708 10.9375 10.2187C10.375 9.9375 9.80729 9.72917 9.23438 9.59375C8.66146 9.44792 8.08333 9.375 7.5 9.375C6.91667 9.375 6.33854 9.44792 5.76562 9.59375C5.19271 9.72917 4.625 9.9375 4.0625 10.2187C3.96875 10.2708 3.89062 10.3438 3.82812 10.4375C3.77604 10.5313 3.75 10.6354 3.75 10.75V11.25ZM7.5 7.5C6.8125 7.5 6.22396 7.25521 5.73438 6.76562C5.24479 6.27604 5 5.6875 5 5C5 4.3125 5.24479 3.72396 5.73438 3.23438C6.22396 2.74479 6.8125 2.5 7.5 2.5C8.1875 2.5 8.77604 2.74479 9.26562 3.23438C9.75521 3.72396 10 4.3125 10 5C10 5.6875 9.75521 6.27604 9.26562 6.76562C8.77604 7.25521 8.1875 7.5 7.5 7.5ZM7.5 6.25C7.84375 6.25 8.13542 6.13021 8.375 5.89062C8.625 5.64063 8.75 5.34375 8.75 5C8.75 4.65625 8.625 4.36458 8.375 4.125C8.13542 3.875 7.84375 3.75 7.5 3.75C7.15625 3.75 6.85938 3.875 6.60938 4.125C6.36979 4.36458 6.25 4.65625 6.25 5C6.25 5.34375 6.36979 5.64063 6.60938 5.89062C6.85938 6.13021 7.15625 6.25 7.5 6.25ZM12.5 8.125C11.9792 8.125 11.5365 7.94271 11.1719 7.57813C10.8073 7.21354 10.625 6.77083 10.625 6.25C10.625 5.72917 10.8073 5.28646 11.1719 4.92187C11.5365 4.55729 11.9792 4.375 12.5 4.375C13.0208 4.375 13.4635 4.55729 13.8281 4.92187C14.1927 5.28646 14.375 5.72917 14.375 6.25C14.375 6.77083 14.1927 7.21354 13.8281 7.57813C13.4635 7.94271 13.0208 8.125 12.5 8.125ZM12.5 6.875C12.6771 6.875 12.8229 6.81771 12.9375 6.70312C13.0625 6.57813 13.125 6.42708 13.125 6.25C13.125 6.07292 13.0625 5.92708 12.9375 5.8125C12.8229 5.6875 12.6771 5.625 12.5 5.625C12.3229 5.625 12.1719 5.6875 12.0469 5.8125C11.9323 5.92708 11.875 6.07292 11.875 6.25C11.875 6.42708 11.9323 6.57813 12.0469 6.70312C12.1719 6.81771 12.3229 6.875 12.5 6.875ZM13.125 12.5V8.71875C13.2813 8.77083 13.4271 8.82813 13.5625 8.89062C13.7083 8.95312 13.8542 9.02083 14 9.09375C14.3125 9.25 14.5573 9.47917 14.7344 9.78125C14.9115 10.0833 15 10.4115 15 10.7656V12.5H13.125Z" fill="#003CFF" fill-opacity="0.75"/>
</svg>
