<svg width="19" height="19" viewBox="0 0 19 19" fill="none" xmlns="http://www.w3.org/2000/svg">
<path d="M12.1124 13.2209L13.2208 12.1125L10.2916 9.18337V5.54171H8.70825V9.81671L12.1124 13.2209ZM9.49992 17.4167C8.40478 17.4167 7.37561 17.2089 6.41242 16.7933C5.44922 16.3776 4.61138 15.8136 3.89888 15.1011C3.18638 14.3886 2.62231 13.5507 2.20669 12.5875C1.79106 11.6243 1.58325 10.5952 1.58325 9.50004C1.58325 8.4049 1.79106 7.37573 2.20669 6.41254C2.62231 5.44935 3.18638 4.6115 3.89888 3.899C4.61138 3.1865 5.44922 2.62244 6.41242 2.20681C7.37561 1.79119 8.40478 1.58337 9.49992 1.58337C10.5951 1.58337 11.6242 1.79119 12.5874 2.20681C13.5506 2.62244 14.3885 3.1865 15.101 3.899C15.8135 4.6115 16.3775 5.44935 16.7931 6.41254C17.2088 7.37573 17.4166 8.4049 17.4166 9.50004C17.4166 10.5952 17.2088 11.6243 16.7931 12.5875C16.3775 13.5507 15.8135 14.3886 15.101 15.1011C14.3885 15.8136 13.5506 16.3776 12.5874 16.7933C11.6242 17.2089 10.5951 17.4167 9.49992 17.4167ZM9.49992 15.8334C11.2548 15.8334 12.7491 15.2165 13.9827 13.9829C15.2164 12.7492 15.8333 11.2549 15.8333 9.50004C15.8333 7.74518 15.2164 6.25091 13.9827 5.01723C12.7491 3.78355 11.2548 3.16671 9.49992 3.16671C7.74506 3.16671 6.25079 3.78355 5.01711 5.01723C3.78343 6.25091 3.16659 7.74518 3.16659 9.50004C3.16659 11.2549 3.78343 12.7492 5.01711 13.9829C6.25079 15.2165 7.74506 15.8334 9.49992 15.8334Z" fill="white"/>
</svg>
