<svg width="20" height="20" viewBox="0 0 20 20" fill="none" xmlns="http://www.w3.org/2000/svg">
<path d="M10 11.6667C9.30558 11.6667 8.7153 11.4237 8.22919 10.9376C7.74308 10.4515 7.50002 9.86119 7.50002 9.16675V4.16675C7.50002 3.4723 7.74308 2.88203 8.22919 2.39591C8.7153 1.9098 9.30558 1.66675 10 1.66675C10.6945 1.66675 11.2847 1.9098 11.7709 2.39591C12.257 2.88203 12.5 3.4723 12.5 4.16675V9.16675C12.5 9.86119 12.257 10.4515 11.7709 10.9376C11.2847 11.4237 10.6945 11.6667 10 11.6667ZM9.16669 17.5001V14.9376C7.72224 14.7431 6.5278 14.0973 5.58335 13.0001C4.63891 11.9029 4.16669 10.6251 4.16669 9.16675H5.83335C5.83335 10.3195 6.2396 11.3022 7.0521 12.1147C7.8646 12.9272 8.84724 13.3334 10 13.3334C11.1528 13.3334 12.1354 12.9272 12.9479 12.1147C13.7604 11.3022 14.1667 10.3195 14.1667 9.16675H15.8334C15.8334 10.6251 15.3611 11.9029 14.4167 13.0001C13.4722 14.0973 12.2778 14.7431 10.8334 14.9376V17.5001H9.16669Z" fill="#1D1B20"/>
</svg>
