<svg width="19" height="19" viewBox="0 0 19 19" fill="none" xmlns="http://www.w3.org/2000/svg">
<path d="M7.125 13.0624C6.57083 13.0624 6.10243 12.8711 5.71979 12.4885C5.33715 12.1058 5.14583 11.6374 5.14583 11.0833C5.14583 10.5291 5.33715 10.0607 5.71979 9.67804C6.10243 9.2954 6.57083 9.10408 7.125 9.10408C7.67917 9.10408 8.14757 9.2954 8.53021 9.67804C8.91285 10.0607 9.10417 10.5291 9.10417 11.0833C9.10417 11.6374 8.91285 12.1058 8.53021 12.4885C8.14757 12.8711 7.67917 13.0624 7.125 13.0624ZM3.95833 17.4166C3.52292 17.4166 3.15017 17.2615 2.8401 16.9515C2.53003 16.6414 2.375 16.2687 2.375 15.8333V4.74992C2.375 4.3145 2.53003 3.94176 2.8401 3.63169C3.15017 3.32162 3.52292 3.16659 3.95833 3.16659H4.75V1.58325H6.33333V3.16659H12.6667V1.58325H14.25V3.16659H15.0417C15.4771 3.16659 15.8498 3.32162 16.1599 3.63169C16.47 3.94176 16.625 4.3145 16.625 4.74992V15.8333C16.625 16.2687 16.47 16.6414 16.1599 16.9515C15.8498 17.2615 15.4771 17.4166 15.0417 17.4166H3.95833ZM3.95833 15.8333H15.0417V7.91658H3.95833V15.8333Z" fill="#F95B5B"/>
</svg>
