<svg width="19" height="19" viewBox="0 0 19 19" fill="none" xmlns="http://www.w3.org/2000/svg">
<path d="M12.1125 13.2209L13.2208 12.1125L10.2917 9.18337V5.54171H8.70833V9.81671L12.1125 13.2209ZM9.49999 17.4167C8.40486 17.4167 7.37569 17.2089 6.41249 16.7933C5.4493 16.3776 4.61145 15.8136 3.89895 15.1011C3.18645 14.3886 2.62239 13.5507 2.20677 12.5875C1.79114 11.6243 1.58333 10.5952 1.58333 9.50004C1.58333 8.4049 1.79114 7.37573 2.20677 6.41254C2.62239 5.44935 3.18645 4.6115 3.89895 3.899C4.61145 3.1865 5.4493 2.62244 6.41249 2.20681C7.37569 1.79119 8.40486 1.58337 9.49999 1.58337C10.5951 1.58337 11.6243 1.79119 12.5875 2.20681C13.5507 2.62244 14.3885 3.1865 15.101 3.899C15.8135 4.6115 16.3776 5.44935 16.7932 6.41254C17.2088 7.37573 17.4167 8.4049 17.4167 9.50004C17.4167 10.5952 17.2088 11.6243 16.7932 12.5875C16.3776 13.5507 15.8135 14.3886 15.101 15.1011C14.3885 15.8136 13.5507 16.3776 12.5875 16.7933C11.6243 17.2089 10.5951 17.4167 9.49999 17.4167ZM9.49999 15.8334C11.2549 15.8334 12.7491 15.2165 13.9828 13.9829C15.2165 12.7492 15.8333 11.2549 15.8333 9.50004C15.8333 7.74518 15.2165 6.25091 13.9828 5.01723C12.7491 3.78355 11.2549 3.16671 9.49999 3.16671C7.74513 3.16671 6.25086 3.78355 5.01718 5.01723C3.7835 6.25091 3.16666 7.74518 3.16666 9.50004C3.16666 11.2549 3.7835 12.7492 5.01718 13.9829C6.25086 15.2165 7.74513 15.8334 9.49999 15.8334Z" fill="white"/>
</svg>
