<svg width="19" height="19" viewBox="0 0 19 19" fill="none" xmlns="http://www.w3.org/2000/svg">
<path d="M12.1124 13.2208L13.2208 12.1124L10.2916 9.18325V5.54158H8.70825V9.81659L12.1124 13.2208ZM9.49992 17.4166C8.40478 17.4166 7.37561 17.2088 6.41242 16.7931C5.44922 16.3775 4.61138 15.8135 3.89888 15.101C3.18638 14.3885 2.62231 13.5506 2.20669 12.5874C1.79106 11.6242 1.58325 10.5951 1.58325 9.49992C1.58325 8.40478 1.79106 7.37561 2.20669 6.41242C2.62231 5.44922 3.18638 4.61138 3.89888 3.89888C4.61138 3.18638 5.44922 2.62231 6.41242 2.20669C7.37561 1.79106 8.40478 1.58325 9.49992 1.58325C10.5951 1.58325 11.6242 1.79106 12.5874 2.20669C13.5506 2.62231 14.3885 3.18638 15.101 3.89888C15.8135 4.61138 16.3775 5.44922 16.7931 6.41242C17.2088 7.37561 17.4166 8.40478 17.4166 9.49992C17.4166 10.5951 17.2088 11.6242 16.7931 12.5874C16.3775 13.5506 15.8135 14.3885 15.101 15.101C14.3885 15.8135 13.5506 16.3775 12.5874 16.7931C11.6242 17.2088 10.5951 17.4166 9.49992 17.4166ZM9.49992 15.8333C11.2548 15.8333 12.7491 15.2164 13.9827 13.9827C15.2164 12.7491 15.8333 11.2548 15.8333 9.49992C15.8333 7.74506 15.2164 6.25079 13.9827 5.01711C12.7491 3.78343 11.2548 3.16659 9.49992 3.16659C7.74506 3.16659 6.25079 3.78343 5.01711 5.01711C3.78343 6.25079 3.16659 7.74506 3.16659 9.49992C3.16659 11.2548 3.78343 12.7491 5.01711 13.9827C6.25079 15.2164 7.74506 15.8333 9.49992 15.8333Z" fill="white"/>
</svg>
