<svg width="12" height="12" viewBox="0 0 12 12" fill="none" xmlns="http://www.w3.org/2000/svg">
<path d="M6 11C5.88333 11 5.78333 10.9667 5.7 10.9C5.61667 10.8333 5.55417 10.7458 5.5125 10.6375C5.35417 10.1708 5.15417 9.73333 4.9125 9.325C4.67917 8.91667 4.35 8.4375 3.925 7.8875C3.5 7.3375 3.15417 6.8125 2.8875 6.3125C2.62917 5.8125 2.5 5.20833 2.5 4.5C2.5 3.525 2.8375 2.7 3.5125 2.025C4.19583 1.34167 5.025 1 6 1C6.975 1 7.8 1.34167 8.475 2.025C9.15833 2.7 9.5 3.525 9.5 4.5C9.5 5.25833 9.35417 5.89167 9.0625 6.4C8.77917 6.9 8.45 7.39583 8.075 7.8875C7.625 8.4875 7.28333 8.9875 7.05 9.3875C6.825 9.77917 6.6375 10.1958 6.4875 10.6375C6.44583 10.7542 6.37917 10.8458 6.2875 10.9125C6.20417 10.9708 6.10833 11 6 11ZM6 5.75C6.35 5.75 6.64583 5.62917 6.8875 5.3875C7.12917 5.14583 7.25 4.85 7.25 4.5C7.25 4.15 7.12917 3.85417 6.8875 3.6125C6.64583 3.37083 6.35 3.25 6 3.25C5.65 3.25 5.35417 3.37083 5.1125 3.6125C4.87083 3.85417 4.75 4.15 4.75 4.5C4.75 4.85 4.87083 5.14583 5.1125 5.3875C5.35417 5.62917 5.65 5.75 6 5.75Z" fill="black" fill-opacity="0.43"/>
</svg>
