<svg width="19" height="19" viewBox="0 0 19 19" fill="none" xmlns="http://www.w3.org/2000/svg">
<path d="M12.1125 13.2208L13.2208 12.1124L10.2916 9.18325V5.54158H8.70831V9.81659L12.1125 13.2208ZM9.49998 17.4166C8.40484 17.4166 7.37567 17.2088 6.41248 16.7931C5.44929 16.3775 4.61144 15.8135 3.89894 15.101C3.18644 14.3885 2.62238 13.5506 2.20675 12.5874C1.79113 11.6242 1.58331 10.5951 1.58331 9.49992C1.58331 8.40478 1.79113 7.37561 2.20675 6.41242C2.62238 5.44922 3.18644 4.61138 3.89894 3.89888C4.61144 3.18638 5.44929 2.62231 6.41248 2.20669C7.37567 1.79106 8.40484 1.58325 9.49998 1.58325C10.5951 1.58325 11.6243 1.79106 12.5875 2.20669C13.5507 2.62231 14.3885 3.18638 15.101 3.89888C15.8135 4.61138 16.3776 5.44922 16.7932 6.41242C17.2088 7.37561 17.4166 8.40478 17.4166 9.49992C17.4166 10.5951 17.2088 11.6242 16.7932 12.5874C16.3776 13.5506 15.8135 14.3885 15.101 15.101C14.3885 15.8135 13.5507 16.3775 12.5875 16.7931C11.6243 17.2088 10.5951 17.4166 9.49998 17.4166ZM9.49998 15.8333C11.2548 15.8333 12.7491 15.2164 13.9828 13.9827C15.2165 12.7491 15.8333 11.2548 15.8333 9.49992C15.8333 7.74506 15.2165 6.25079 13.9828 5.01711C12.7491 3.78343 11.2548 3.16659 9.49998 3.16659C7.74512 3.16659 6.25085 3.78343 5.01717 5.01711C3.78349 6.25079 3.16665 7.74506 3.16665 9.49992C3.16665 11.2548 3.78349 12.7491 5.01717 13.9827C6.25085 15.2164 7.74512 15.8333 9.49998 15.8333Z" fill="white"/>
</svg>
